<svg width="91" height="255" viewBox="0 0 91 255" fill="none" xmlns="http://www.w3.org/2000/svg">
<path d="M81.8603 240.48C84.589 240.48 86.793 241.152 88.4721 242.496C90.1513 243.84 90.9909 245.664 90.9909 247.968C90.9909 250.08 90.1513 251.712 88.4721 252.864C87.0028 254.208 84.7989 254.88 81.8603 254.88H61.0804C51.635 254.88 44.4984 252.576 39.6708 247.968C34.8431 243.36 32.4293 236.736 32.4293 228.096V158.112C32.4293 150.24 30.6452 144.48 27.0769 140.832C23.7185 137.184 17.7364 135.168 9.13058 134.784C3.04352 134.208 0 131.712 0 127.296C0 125.376 0.734643 123.744 2.20393 122.4C3.88312 121.056 6.192 120.288 9.13058 120.096C17.7364 119.52 23.7185 117.408 27.0769 113.76C30.6452 110.112 32.4293 104.352 32.4293 96.48V26.784C32.4293 18.144 34.8431 11.52 39.6708 6.912C44.4984 2.304 51.635 0 61.0804 0H81.8603C84.7989 0 87.0028 0.672005 88.4721 2.01601C90.1513 3.16801 90.9909 4.8 90.9909 6.912C90.9909 9.216 90.1513 11.04 88.4721 12.384C86.793 13.728 84.589 14.4 81.8603 14.4H65.1734C55.9379 14.4 51.3201 18.816 51.3201 27.648V98.208C51.3201 106.464 49.1162 113.088 44.7083 118.08C40.5104 122.88 35.2629 125.952 28.966 127.296C35.2629 128.64 40.5104 131.808 44.7083 136.8C49.1162 141.6 51.3201 148.128 51.3201 156.384V227.232C51.3201 236.064 55.9379 240.48 65.1734 240.48H81.8603Z" fill="#DBEAF7"/>
</svg>
