<svg width="27" height="24" viewBox="0 0 27 24" fill="none" xmlns="http://www.w3.org/2000/svg">
<path d="M13.8066 1.00403e-06C6.55774 -0.00268026 0.686523 5.36521 0.686523 11.9906C0.686523 17.2298 4.35933 21.6834 9.4743 23.319C10.1631 23.4772 10.0576 23.0294 10.0576 22.7237V20.6457C6.07996 21.0721 5.91874 18.6643 5.652 18.2621C5.11265 17.4202 3.83758 17.2057 4.21864 16.8035C5.12438 16.3772 6.04771 16.9107 7.1176 18.3559C7.89144 19.4043 9.40102 19.2274 10.1661 19.0531C10.3331 18.423 10.6908 17.8599 11.1832 17.4229C7.06191 16.7472 5.34422 14.4467 5.34422 11.7118C5.34422 10.3845 5.82201 9.16457 6.76 8.18054C6.16203 6.55838 6.81569 5.16948 6.90363 4.96302C8.60666 4.8236 10.3771 6.07843 10.5149 6.17764C11.4822 5.939 12.5872 5.81298 13.8242 5.81298C15.0671 5.81298 16.1751 5.94437 17.1511 6.18568C17.4824 5.95509 19.1239 4.87722 20.7067 5.0086C20.7917 5.21506 21.4307 6.57178 20.8679 8.1725C21.8176 9.1592 22.3013 10.3899 22.3013 11.7198C22.3013 14.4601 20.5719 16.7633 16.4389 17.4282C16.7929 17.7467 17.0739 18.1265 17.2657 18.5454C17.4574 18.9643 17.556 19.414 17.5557 19.8682V22.8846C17.5791 23.1259 17.5557 23.3645 17.9953 23.3645C23.1865 21.7638 26.9238 17.2781 26.9238 11.9933C26.9238 5.36521 21.0497 1.00403e-06 13.8066 1.00403e-06Z" fill="#4DA8FF"/>
</svg>
