<svg width="91" height="255" viewBox="0 0 91 255" fill="none" xmlns="http://www.w3.org/2000/svg">
<path d="M81.8336 120.096C87.9206 120.288 90.9642 122.688 90.9642 127.296C90.9642 131.712 87.9206 134.208 81.8336 134.784C73.4376 135.168 67.5605 137.184 64.2021 140.832C61.0537 144.288 59.4794 150.048 59.4794 158.112L58.8497 228.096C58.8497 236.736 56.4359 243.36 51.6082 247.968C46.7806 252.576 39.644 254.88 30.1986 254.88H9.41866C6.48009 254.88 4.17121 254.208 2.49202 252.864C1.02273 251.712 0.288086 250.08 0.288086 247.968C0.288086 245.664 1.12768 243.84 2.80687 242.496C4.48605 241.152 6.68999 240.48 9.41866 240.48H26.1056C35.3411 240.48 39.9589 236.064 39.9589 227.232V156.384C39.9589 148.128 42.0579 141.6 46.2558 136.8C50.6637 131.808 55.9111 128.64 61.9982 127.296C55.9111 125.952 50.6637 122.88 46.2558 118.08C42.0579 113.088 39.9589 106.464 39.9589 98.208V27.648C39.9589 18.816 35.3411 14.4 26.1056 14.4H9.41866C6.68999 14.4 4.48605 13.728 2.80687 12.384C1.12768 11.04 0.288086 9.216 0.288086 6.912C0.288086 4.8 1.02273 3.16801 2.49202 2.01601C4.17121 0.672005 6.48009 0 9.41866 0H30.1986C39.644 0 46.7806 2.304 51.6082 6.912C56.4359 11.52 58.8497 18.144 58.8497 26.784V96.48C58.8497 104.352 60.5289 110.112 63.8873 113.76C67.2456 117.408 73.2278 119.52 81.8336 120.096Z" fill="#DBEAF7"/>
</svg>
